<svg width="172" height="68" viewBox="0 0 172 68" fill="none" xmlns="http://www.w3.org/2000/svg">
<path d="M88.5083 8.74333C90.8017 8.74333 92.5217 6.88 92.5217 4.73C92.5217 2.43667 90.6583 0.716667 88.5083 0.716667C86.215 0.716667 84.495 2.58 84.495 4.73C84.495 6.88 86.3583 8.74333 88.5083 8.74333ZM104.92 44.5767C106.425 44.5767 107.858 44.075 108.933 43.645C110.08 43.1433 110.797 42.4983 111.083 41.9967C111.37 41.71 111.585 41.2083 111.585 40.7783C111.585 40.4917 111.442 40.1333 111.298 39.6317C110.797 38.8433 110.08 38.4133 109.292 38.4133C109.148 38.4133 109.005 38.4133 108.79 38.4133C108.288 38.5567 108.145 38.7 107.858 38.7C107.572 38.8433 107.213 38.8433 106.712 38.8433C105.78 38.8433 105.35 38.5567 105.063 38.1983C105.063 38.1983 104.418 37.41 104.275 36.6933C103.988 35.3317 103.988 33.3967 103.988 32.035C103.988 31.5333 103.988 4.01333 103.988 3.29667C103.988 2.15 103.487 1.43333 102.77 1.00333C101.982 0.501667 101.122 0.215 100.118 0.215C99.115 0.215 98.255 0.358333 97.4667 1.00333C96.6783 1.505 96.2483 2.22167 96.2483 3.29667V35.9767C96.2483 37.84 96.75 39.8467 98.1117 41.6383C99.4733 43.3583 101.623 44.5767 104.92 44.5767ZM120.543 17.845C122.407 15.05 124.557 14.6917 125.488 14.6917C126.993 14.6917 128.642 15.8383 129 18.06C129 18.5617 129.143 18.8483 129.143 19.2783C129.143 20.9267 128.498 22.4317 127.638 23.435C125.345 26.0867 122.048 26.7317 118.68 27.09C118.68 26.8033 118.68 26.445 118.68 26.1583C118.68 23.435 119.11 19.995 120.543 17.845ZM115.598 40.7783C118.107 43.2867 121.618 44.6483 125.918 44.6483C128.212 44.6483 130.433 44.1467 132.082 43.5017C132.87 43.215 133.587 42.7133 134.088 42.2833C134.59 41.7817 134.877 41.1367 134.877 40.635C134.877 40.4917 134.877 40.4917 134.877 40.3483C134.733 39.2017 133.73 38.485 132.727 38.485C132.44 38.485 132.225 38.485 131.938 38.6283C130.72 39.13 129.43 39.2733 127.925 39.2733C127.423 39.2733 126.993 39.2733 126.563 39.2733C123.267 38.9867 121.475 37.1233 120.4 35.1167C119.755 34.185 119.468 33.11 119.253 32.3217C119.11 32.035 119.11 31.6767 119.11 31.5333C123.41 31.39 127.28 30.745 130.863 28.8817C132.727 27.735 134.877 26.23 136.167 23.9367C136.955 22.4317 137.313 20.64 137.313 19.135C137.313 18.6333 137.313 18.2033 137.17 17.7733C136.382 13.6167 132.512 10.32 126.492 10.32C122.335 10.32 116.888 11.9683 113.663 17.1283C112.445 19.135 110.725 22.79 110.725 27.8067C110.725 28.9533 110.868 30.1 111.012 31.3183C111.37 35.045 112.947 38.4133 115.598 40.7783ZM40.85 43.5733C41.6383 44.075 42.4983 44.3617 43.5017 44.3617C44.4333 44.3617 45.365 44.2183 46.1533 43.5733C46.9417 43.0717 47.3717 42.355 47.3717 41.28C47.3717 41.28 47.3717 23.5067 47.3717 23.3633C47.3717 22.0017 47.8733 20.0667 48.59 18.705C49.3783 17.3433 50.5967 16.1967 52.46 16.1967C53.3917 16.1967 53.8217 16.4833 54.3233 16.985C55.1117 17.63 55.47 18.6333 55.685 19.78C55.8283 20.9267 55.9717 21.93 55.9717 22.575C55.9717 22.7183 55.9717 40.7067 55.9717 41.28C55.9717 42.4267 56.6167 43.1433 57.3333 43.5733C58.1217 44.075 58.9817 44.3617 59.985 44.3617C60.9883 44.3617 61.9917 44.2183 62.78 43.5733C63.5683 43.0717 64.1417 42.355 64.1417 41.28V23.3633C64.1417 22.0017 64.6433 20.0667 65.36 18.705C66.1483 17.3433 67.3667 16.1967 69.23 16.1967C70.1617 16.1967 70.5917 16.4833 71.0933 16.985C71.8817 17.63 72.24 18.6333 72.455 19.78C72.5983 20.9267 72.7417 21.93 72.7417 22.575C72.7417 22.7183 72.7417 40.0617 72.7417 41.28C72.7417 42.4267 73.3867 43.1433 74.1033 43.5733C74.8917 44.075 75.7517 44.3617 76.755 44.3617C77.6867 44.3617 78.7617 44.2183 79.55 43.5733C80.3383 43.0717 80.9117 42.355 80.9117 41.28V23.7217C80.9117 19.2067 79.98 15.9817 78.4033 13.6167C76.755 11.3233 74.39 10.2483 71.4517 10.2483C68.6567 10.2483 66.65 11.61 65.145 13.0433C63.9983 14.19 63.4967 15.1933 62.995 16.1967C62.35 14.3333 61.3467 12.9 60.0567 12.04C58.5517 10.8217 56.76 10.3917 54.61 10.3917C51.0983 10.3917 48.7333 12.5417 47.1567 14.5483V14.405C47.1567 13.2583 46.655 12.5417 45.9383 12.1117C45.15 11.61 44.29 11.3233 43.2867 11.3233C42.355 11.3233 41.4233 11.4667 40.635 12.1117C39.775 12.5417 39.345 13.2583 39.345 14.3333C39.345 14.3333 39.345 40.635 39.345 41.2083C39.4883 42.14 40.0617 42.9283 40.85 43.5733ZM91.16 11.825C90.3717 11.3233 89.5117 11.0367 88.5083 11.0367C87.5767 11.0367 86.645 11.18 85.8567 11.825C85.0683 12.3267 84.6383 13.0433 84.6383 14.1183C84.6383 14.1183 84.6383 40.42 84.6383 40.9933C84.6383 42.14 85.14 42.8567 85.8567 43.2867C86.645 43.7883 87.505 44.075 88.5083 44.075C89.44 44.075 90.3717 43.9317 91.16 43.2867C91.9483 42.785 92.3783 42.0683 92.3783 40.9933C92.3783 40.9933 92.3783 14.6917 92.3783 14.1183C92.3067 13.1867 91.8767 12.47 91.16 11.825ZM170.925 25.8C170.925 25.6567 170.782 25.5133 170.638 25.2983C170.495 25.2983 170.352 25.2983 170.137 25.4417C170.137 25.4417 169.993 25.585 169.85 25.7283C169.707 25.8717 169.205 26.3733 168.703 26.875C167.772 27.8067 166.41 29.025 164.69 30.3867C163.472 31.5333 161.895 32.68 160.175 33.8983C160.175 33.3967 160.032 32.9667 160.032 32.5367C159.53 30.6733 158.527 29.24 157.093 28.0217C155.087 26.3733 152.435 25.2267 150.428 24.0083C149.282 23.3633 148.422 22.79 147.777 22.0017C147.132 21.2133 146.63 20.4967 146.558 19.4933C146.558 19.35 146.558 19.2067 146.558 18.8483C146.558 17.9167 146.845 16.8417 147.777 16.0533C148.278 15.5517 149.425 14.835 151.288 14.835C153.582 14.835 155.445 15.7667 156.592 15.7667C157.81 15.7667 158.885 15.1217 159.243 13.9033C159.243 13.76 159.387 13.4017 159.387 13.115C159.387 11.7533 158.24 10.4633 156.735 10.1767C156.735 10.1767 155.373 9.675 152.578 9.675C148.565 9.675 145.268 10.6067 142.975 12.47C140.682 14.1183 139.463 16.6267 139.463 19.565C139.463 20.3533 139.607 21.07 139.75 22.0733C140.682 25.585 144.05 27.52 147.347 29.1683C148.852 29.9567 150.643 30.8167 151.647 31.6767C152.865 32.6083 153.653 33.54 153.797 34.4717C153.797 34.615 153.797 34.7583 153.797 34.9733C153.797 35.905 153.295 36.8367 152.578 37.625C151.79 38.27 150.428 38.8433 148.565 38.8433H148.422C146.415 38.8433 144.767 38.1983 143.477 37.6967C142.975 37.41 142.33 37.41 141.972 37.41C140.753 37.41 139.822 38.1983 139.678 39.4167C139.678 39.56 139.678 39.7033 139.678 39.7033C139.678 40.635 140.18 41.2083 140.825 41.8533C141.757 42.6417 143.118 43.215 144.337 43.5017C130.218 50.5967 110.653 56.975 85.8567 56.975C60.7733 56.975 41.1367 50.4533 26.9467 43.3583C29.885 42.7133 32.25 41.71 33.8983 40.0617C36.4067 37.7683 37.5533 34.7583 37.5533 31.605C37.5533 30.8167 37.5533 30.2433 37.41 29.455C36.9083 26.9467 35.7617 25.155 34.0417 23.5783C31.39 21.285 28.0217 19.565 25.2267 17.9167C23.865 17.1283 22.4317 16.2683 21.5717 15.265C20.7117 14.2617 20.0667 13.4017 19.9233 12.3267C19.9233 12.04 19.9233 11.6817 19.9233 11.395C19.9233 10.0333 20.425 8.6 21.5717 7.525C22.7183 6.37833 24.51 5.66167 27.1617 5.66167C28.5233 5.66167 30.315 5.94833 32.1067 6.45C32.7517 6.59333 33.2533 6.73667 33.6117 6.73667C34.9733 6.73667 35.905 5.94833 36.4067 5.08833C36.55 4.80167 36.55 4.3 36.55 3.94167C36.55 3.01 36.0483 2.29333 35.4033 1.79167C34.7583 1.29 33.8983 0.86 32.895 0.645C31.0317 0.358333 29.24 0 27.0183 0C21.5717 0 17.5583 1.505 14.9067 3.87C12.255 6.235 11.18 9.31667 11.18 12.255C11.18 12.9 11.18 13.4733 11.3233 14.1183C12.1117 18.275 15.6233 21.07 19.2783 23.22C22.79 25.37 26.5883 27.2333 27.95 29.0967C28.7383 30.2433 29.0967 31.39 29.0967 32.6083C29.0967 33.8267 28.595 35.1167 27.95 35.905C26.5883 37.5533 24.08 38.7 21.285 38.7C19.6367 38.7 17.7733 38.1983 16.1967 37.3383C16.0533 37.3383 15.91 37.195 15.91 37.195C12.04 34.6867 8.815 32.25 6.45 30.2433C4.58667 28.7383 3.15333 27.4483 2.43667 26.7317C1.935 26.23 1.64833 25.9433 1.29 25.585C1.14667 25.4417 1.00333 25.2983 1.00333 25.2983C0.86 25.155 0.716667 25.155 0.501667 25.155C0.358333 25.155 0.215 25.2983 0.215 25.6567C-4.27167e-08 26.1583 0 27.09 0 28.0217V28.165C0 30.8167 0.931667 32.8233 3.29667 34.9733C3.94167 35.6183 35.475 67.6533 86 67.6533C136.597 67.6533 168.13 35.6183 168.703 34.9733C170.997 32.8233 172 30.8167 172 28.165V28.0933C171.068 27.305 171.068 26.5167 170.925 25.8Z" fill="white"/>
</svg>
